<svg xmlns="http://www.w3.org/2000/svg" version="1.1" xmlns:xlink="http://www.w3.org/1999/xlink" xmlns:svgjs="http://svgjs.dev/svgjs" width="2000" height="2250" viewBox="0 0 2000 2250"><g transform="matrix(1,0,0,1,0.00014687500004129106,0)"><svg viewBox="0 0 320 360" data-background-color="#f80a25" preserveAspectRatio="xMidYMid meet" height="2250" width="2000" xmlns="http://www.w3.org/2000/svg" xmlns:xlink="http://www.w3.org/1999/xlink"><g id="tight-bounds" transform="matrix(1,0,0,1,0.000023499999997511622,0)"><svg viewBox="0 0 320 360" height="360" width="320"><g><svg></svg></g><g><svg viewBox="0 0 320 360" height="360" width="320"><g><path transform="translate(-74.99272,-51.79039) scale(4.65793,4.65793)" d="M20.6 59.9l0.8 1-0.4-1.3c-0.1-0.6-0.8 0.1-0.4 0.3M21.5 59.3c0.3 0.5 0.6 1 0.6 1.5 0 0.7 0.6 1 1.1 1.2-0.7-0.8-1.1-3-1.7-2.7M59.9 16.9c1.7 0 3.3-0.2 5.1 0.2 4.4 1.1 8.1 3.3 10.6 6.4l7 11.2c0.3 2.8 0.9 5.9 0.8 9.3 0.7 0 0.6-1 1.4-1.2-0.8 2-1.2 4.5-1.4 7.4-0.5-1.6 0-4 0.1-5.3-0.7 1.1-1.1 0.3-1.1-0.2 0.1-0.8-0.3-0.7-0.6-1-1.1-1-1.8-2.1-2.6-3.8 0.5-1.3 0.6-3.2-1-4.2-0.5-0.3-1.1-0.8-1.4-1.6-0.4-1.1-1.1-2.4-0.9-4.1 0.1-0.5-1.5 1.1-2.4 0.4-3.9-2.7-7.8-5.8-12.5-8.4-2.5 0-4.3-0.9-5.2-2-0.8-1-0.2-2.3 1-2.4 0.7 0 1.5-0.2 2.1 0.2 0.1-0.4 0.5-0.9 1-0.9M50 14.6l0.2 0.1c1 0.2 1.5 1.6 2.6 1.1 0 0.7 0.1 1.4-0.1 1.9-0.3 0.8-1.2 0.8-1.9 0.8-6.7-0.4-10.6 2.4-14.7 4.8-1.1 0.7-2.3 1.2-3.2 2.1-4.3 4-9 7.7-10.1 15.1l-0.9 8.2c-0.1 0.9-1.1 1.8-0.9 2.9l0.7 4.9c-0.7-0.7-1.1 0.2-0.9 0.6 0.1 0.3 0.5 1.3 1.1 0.4 0.8 1.5 1.6 4.4 2.7 5.7 3.4 4 7.8 7.6 11.4 11.2 0.9-0.2 1.6-0.2 1.8-0.8 0.3 0.6-0.3 1.2-0.8 1.3 1.6 1 3.4 1.9 5.8 2.1 3.1 0.2 6 0.7 8.7 1.4 1.4-0.4 2.8-0.6 4.3-0.7 0.5 0 0.8-0.8 1.4-1l0.1-1c0.6 0.9 0.5-0.3 0.1-0.9 0.7 0.6 0.9 1.1 1.2 1.5 0-0.3 0.8-1.4 0.8-0.1l0.2-1.3c0.3-0.2 0.4 1.1 0.7 0.2 0.3-0.9 0.9-0.2 1.5-0.5-0.2 0.4-0.1 1.2 0.6 0.7l0.8-0.7c0.5 1.2 1.3 0.7 1.7 0.5 4.4-2.8 8.8-6.1 13-9.4l-0.1 1.3 0.5-1.6c0.5 0.5 0.9 0.1 1.1-0.2 0.6-1 1.4-2 2.7-2.9-1.6 4.3-3.5 7.7-5.9 10.5l-1 1.2c0 0.7-0.2 1.6-1 1.7-0.4 0.1-1.2-0.2-1.8 0.4-0.3 0.4 0.7 1.2-0.1 0.6-0.7-0.5-1.4 0-2.2 0.2-0.6 0.2 0.4 0.8 0.6 1.2 0.2 0.4 0.4 0.8 0.3 1.3l-1.1-1.2c-1.3 0.7-2.1 2-3.2 3-0.5 0.4-0.3 1.1-0.3 1.7-0.7 0-1.5-0.2-1.9 0.2-0.3 0.4-0.2 1-0.2 1.6-1-0.1-1.1-1.6-2-1.3-0.9 0.2-1.9 0.3-2.7 0.8 0.6 1.2-1 0.5-0.8 0.7-1.5-0.9-2.8-1.6-4.4-1-3.4-1.1-7.6-0.6-10.7-0.2 0-0.5 0.1-1-0.1-1.1-0.2 0.5-0.8 0.3-0.7 0.3-1.9-1.3-3.8-2.1-5.8-3.2-1.8 0.2-3.5-0.7-4-1.2-1.4-1.3-3-0.6-4.3-0.9-2.8-0.7-3.8-3.6-4.1-5.6-0.2-1-1-1.4-1.3-1.3-1.3-4.2-3.3-8-4.9-11.9-0.4-1-0.3-2-0.3-3.1 0.5 0.2 1 0.1 0.9-0.6-0.5-3.3-1.7-5.8-3-8.2 0.7-3.4 0.8-7.4 2.4-10.4 1.4-2.7 4-4.1 5.8-6.4 0.6-0.8 0.6-1.9 1.2-2.6 2-2 4-4.1 6.2-5.9 1-0.8 2.2 0 3.7-0.3 0.5-1.8 2.5-3.4 4.4-2.9 0.8 0.2 2.4-1.9 2.9-2.1 0.8-0.3 0.4 0.8 0.4 1.5 1.9-1.5 4.5-2.3 6.9-3.2" fill="#ffffff" fill-rule="nonzero" stroke="none" stroke-width="1" stroke-linecap="butt" stroke-linejoin="miter" stroke-miterlimit="10" stroke-dasharray="" stroke-dashoffset="0" font-family="none" font-weight="none" font-size="none" text-anchor="none" style="mix-blend-mode: normal" data-fill-palette-color="tertiary"></path></g><g transform="matrix(1,0,0,1,64,127.32617315120093)"><svg viewBox="0 0 192 105.34765369759813" height="105.34765369759813" width="192"><g><svg viewBox="0 0 192 105.34765369759813" height="105.34765369759813" width="192"><g><svg viewBox="0 0 192 105.34765369759813" height="105.34765369759813" width="192"><g transform="matrix(1,0,0,1,0,77.96134427589452)"><svg viewBox="0 0 192 27.386309421703615" height="27.386309421703615" width="192"><g><svg viewBox="0 0 192 27.386309421703615" height="27.386309421703615" width="192"><g><svg viewBox="0 0 192 15.525787631271877" height="15.525787631271877" width="192"><g transform="matrix(1,0,0,1,0,0)"><svg width="192" viewBox="0.95 -34.25 428.47 34.65" height="15.525787631271877" data-palette-color="#f0f0f0"><path d="M21.7-10.65L18.6 0 10 0 0.95-33.7 9.05-33.7 12.15-21.3Q13.15-17.3 13.8-14.08 14.45-10.85 14.6-9.6L14.6-9.6 14.8-8.4Q15.65-12.3 18.2-21.3L18.2-21.3 21.55-33.2 27.25-33.2 30.55-21.3Q31.6-17.55 32.43-14.33 33.25-11.1 33.55-9.75L33.55-9.75 33.85-8.4Q34.5-12.85 36.65-21.35L36.65-21.35 39.75-33.7 47.6-33.7 38.6 0 30 0 27.05-10.65Q26-14.5 25.33-17.15 24.65-19.8 24.5-20.55L24.5-20.55 24.4-21.3Q24.25-19.25 21.7-10.65L21.7-10.65ZM62-14.3L62-14.3 61.65-13.1 69.75-13.1 69.4-14.3Q67.95-19.2 67.02-22.65 66.1-26.1 65.9-27.1L65.9-27.1 65.7-28.1Q65.3-25.35 62-14.3ZM59.8-6.9L57.75 0 49.7 0 60.95-33.7 70.65-33.7 81.9 0 73.65 0 71.6-6.9 59.8-6.9ZM94.3-13.05L93.25 0 85.55 0 88.45-33.7 96.9-33.7 101.6-21.5Q102.8-18.45 103.65-15.9 104.5-13.35 104.75-12.3L104.75-12.3 105-11.3Q105.8-14.6 108.5-21.5L108.5-21.5 113.25-33.7 121.7-33.7 125.2 0 117.5 0 116.25-13.05 115.6-22.9Q114.3-19.15 112-13.05L112-13.05 107.25-0.35 102.7-0.35 98-13.05Q96.85-16.15 96.05-18.6 95.25-21.05 95-22L95-22 94.75-22.9Q94.75-19.35 94.3-13.05L94.3-13.05ZM145.49 0L145.49 0 130.94 0 130.94-33.7 144.04-33.7Q149.59-33.7 152.49-31.08 155.39-28.45 155.39-24.4L155.39-24.4Q155.39-21.75 153.99-19.75 152.59-17.75 150.34-17.05L150.34-17.05Q156.19-15.3 156.19-9.15L156.19-9.15Q156.19-5.15 153.32-2.58 150.44 0 145.49 0ZM142.74-27.55L142.74-27.55 138.64-27.55 138.64-20 141.49-20Q144.49-20 146.02-21.1 147.54-22.2 147.54-24L147.54-24Q147.54-27.55 142.74-27.55ZM142.74-13.95L142.74-13.95 138.64-13.95 138.64-6.15 142.69-6.15Q148.39-6.15 148.39-10.05 148.39-13.95 142.74-13.95ZM171.39-14.3L171.39-14.3 171.04-13.1 179.14-13.1 178.79-14.3Q177.34-19.2 176.42-22.65 175.49-26.1 175.29-27.1L175.29-27.1 175.09-28.1Q174.69-25.35 171.39-14.3ZM169.19-6.9L167.14 0 159.09 0 170.34-33.7 180.04-33.7 191.29 0 183.04 0 180.99-6.9 169.19-6.9ZM219.79-10.9L219.79-10.9 215.89-10.9 215.89 0 208.19 0 208.19-33.7 219.79-33.7Q225.39-33.7 228.86-30.55 232.34-27.4 232.34-22.55L232.34-22.55Q232.34-17 228.71-13.95 225.09-10.9 219.79-10.9ZM218.89-27.55L218.89-27.55 215.89-27.55 215.89-17 218.44-17Q224.54-17 224.54-22.55L224.54-22.55Q224.54-27.55 218.89-27.55ZM247.83-27.45L247.83-27.45 244.03-27.45 244.03-17.95 247.68-17.95Q252.68-17.95 252.68-22.85L252.68-22.85Q252.68-25 251.38-26.23 250.08-27.45 247.83-27.45ZM244.03-11.7L244.03 0 236.33 0 236.33-33.7 247.98-33.7Q253.63-33.7 257.06-30.7 260.48-27.7 260.48-22.9L260.48-22.9Q260.48-15.7 254.33-12.95L254.33-12.95 262.88 0 253.68 0 246.38-11.7 244.03-11.7ZM298.58-16.95L298.58-16.95Q298.58-9.2 294.11-4.42 289.63 0.35 282.18 0.35L282.18 0.35Q274.68 0.35 270.23-4.4 265.78-9.15 265.78-16.95L265.78-16.95Q265.78-24.7 270.26-29.48 274.73-34.25 282.18-34.25L282.18-34.25Q289.68-34.25 294.13-29.5 298.58-24.75 298.58-16.95ZM276.23-24.48Q274.03-21.7 274.03-16.95 274.03-12.2 276.23-9.43 278.43-6.65 282.18-6.65 285.93-6.65 288.13-9.43 290.33-12.2 290.33-16.95 290.33-21.7 288.13-24.48 285.93-27.25 282.18-27.25 278.43-27.25 276.23-24.48ZM317.18-33.65L317.18-10.2Q317.18-5.35 314.6-2.65 312.03 0.05 307.43 0.05L307.43 0.05Q303.98 0.05 302.08-0.95L302.08-0.95 302.08-7.75Q303.93-6.6 305.93-6.6L305.93-6.6Q309.48-6.6 309.48-10.4L309.48-10.4 309.48-33.65 317.18-33.65ZM344.38-6.15L344.38 0 323.43 0 323.43-33.7 344.18-33.7 344.18-27.55 331.18-27.55 331.18-19.9 342.78-19.9 342.78-13.8 331.18-13.8 331.18-6.15 344.38-6.15ZM375.52-9.05L375.52-1.5Q372.47 0.4 366.72 0.4L366.72 0.4Q359.32 0.4 354.35-4.38 349.37-9.15 349.37-16.75L349.37-16.75Q349.37-24.45 354.2-29.3 359.02-34.15 366.77-34.15L366.77-34.15Q372.47-34.15 375.52-32.25L375.52-32.25 375.52-24.85Q371.77-27.15 367.17-27.15L367.17-27.15Q363.12-27.15 360.37-24.33 357.62-21.5 357.62-16.75L357.62-16.75Q357.62-12.1 360.37-9.38 363.12-6.65 367.47-6.65L367.47-6.65Q372.17-6.65 375.52-9.05L375.52-9.05ZM403.72-33.7L403.72-27.5 395.52-27.5 395.52 0 387.77 0 387.77-27.5 379.52-27.5 379.52-33.7 403.72-33.7ZM429.42-9.8L429.42-9.8Q429.42-5.25 426.07-2.43 422.72 0.4 417.17 0.4L417.17 0.4Q411.22 0.4 407.47-1.7L407.47-1.7 407.47-9.45Q412.02-6.15 417.17-6.15L417.17-6.15Q418.92-6.15 420.07-7.08 421.22-8 421.22-9.5L421.22-9.5Q421.22-10 421.07-10.45 420.92-10.9 420.52-11.3 420.12-11.7 419.74-11.98 419.37-12.25 418.64-12.63 417.92-13 417.42-13.25 416.92-13.5 415.94-13.95 414.97-14.4 414.37-14.65L414.37-14.65Q411.12-16.15 409.14-18.35 407.17-20.55 407.17-24.2L407.17-24.2Q407.17-28.55 410.37-31.23 413.57-33.9 419.22-33.9L419.22-33.9Q424.27-33.9 427.92-32.2L427.92-32.2 427.92-25Q423.87-27.35 419.52-27.35L419.52-27.35Q417.57-27.35 416.54-26.55 415.52-25.75 415.52-24.5 415.52-23.25 416.77-22.28 418.02-21.3 420.52-20.2L420.52-20.2Q422.07-19.5 423.09-18.98 424.12-18.45 425.44-17.53 426.77-16.6 427.54-15.58 428.32-14.55 428.87-13.05 429.42-11.55 429.42-9.8Z" opacity="1" transform="matrix(1,0,0,1,0,0)" fill="#ffffff" class="undefined-text-0" data-fill-palette-color="primary" id="text-0"></path></svg></g></svg></g><g transform="matrix(1,0,0,1,0,17.791372665577594)"><svg viewBox="0 0 192 9.59493675612602" height="9.59493675612602" width="192"><g transform="matrix(1,0,0,1,0,0)"><svg width="192" viewBox="2 -39 935.49 46.75" height="9.59493675612602" data-palette-color="#f0f0f0"><path d="M15.95-1.2Q15.95-0.65 12.9-0.33 9.85 0 6.78 0 3.7 0 2.85-0.28 2-0.55 2-1.2L2-1.2 2-32.3Q2-33.4 4.9-34.48 7.8-35.55 11.4-35.55L11.4-35.55Q14.6-35.55 15.6-34.2L15.6-34.2Q15.95-33.7 15.95-33.2L15.95-33.2 15.95-1.2ZM45.13-0.45Q44.23 0.4 41.03 0.4 37.83 0.4 35.73-0.03 33.63-0.45 31.73-1.7L31.73-1.7Q28.08-4.15 28.08-11.9L28.08-11.9 28.08-19.7 25.58-19.7Q25.03-19.7 24.63-20.85 24.23-22 24.23-24 24.23-26 24.86-27.53 25.48-29.05 26.48-29.05L26.48-29.05 28.08-29.05 28.08-35.1Q28.08-36.65 31.11-37.6 34.13-38.55 37.03-38.55L37.03-38.55Q41.58-38.55 41.58-36.3L41.58-36.3 41.58-29.05 45.28-29.05Q46.58-29.05 46.58-25.3L46.58-25.3Q46.58-22.85 46.01-21.28 45.43-19.7 44.53-19.7L44.53-19.7 41.58-19.7 41.58-10.55Q41.58-9.2 42.73-8.63 43.88-8.05 44.76-8.05 45.63-8.05 45.83-7.2 46.03-6.35 46.03-4.65L46.03-4.65Q46.03-1.3 45.13-0.45ZM68.96 0.45L68.96 0.45Q60.66 0.45 56.81-1.15L56.81-1.15Q54.86-2 54.86-2.8L54.86-2.8Q54.86-4.85 56.06-7.6 57.26-10.35 58.16-10.35L58.16-10.35Q58.66-10.35 61.54-9.25 64.41-8.15 66.39-8.15 68.36-8.15 68.99-8.4 69.61-8.65 69.61-9.38 69.61-10.1 68.61-10.53 67.61-10.95 66.11-11.1 64.61-11.25 62.89-11.7 61.16-12.15 59.66-12.85 58.16-13.55 57.16-15.18 56.16-16.8 56.16-18.68 56.16-20.55 56.26-21.48 56.36-22.4 57.09-24.08 57.81-25.75 59.14-26.8 60.46-27.85 63.24-28.7 66.01-29.55 69.46-29.55 72.91-29.55 75.24-29.33 77.56-29.1 78.89-28.75 80.21-28.4 81.06-27.95L81.06-27.95Q82.51-27.2 82.51-26.3L82.51-26.3Q82.51-24.35 81.11-21.8 79.71-19.25 78.89-19.25 78.06-19.25 75.31-20.13 72.56-21 71.26-21L71.26-21Q69.16-21 69.16-19.8L69.16-19.8Q69.16-19.05 70.59-18.68 72.01-18.3 74.01-17.9 76.01-17.5 78.04-16.78 80.06-16.05 81.49-14.15 82.91-12.25 82.91-9.35L82.91-9.35Q82.91 0.45 68.96 0.45ZM124.12 0.45L124.12 0.45Q120.37 0.45 117.67-0.2 114.97-0.85 112.77-2.5L112.77-2.5Q108.22-5.8 108.22-14.8L108.22-14.8Q108.22-22.8 112.87-26.25L112.87-26.25Q117.22-29.45 124.12-29.45L124.12-29.45Q127.07-29.45 129.17-29.18 131.27-28.9 133.45-28 135.62-27.1 136.95-25.55 138.27-24 139.12-21.28 139.97-18.55 139.97-14.8L139.97-14.8Q139.97-7.2 135.67-3.38 131.37 0.45 124.12 0.45ZM122.37-9.3Q122.72-7.5 123.1-7.15 123.47-6.8 124.1-6.8 124.72-6.8 125.1-7.15 125.47-7.5 125.8-9.3 126.12-11.1 126.12-13.83 126.12-16.55 126-18.03 125.87-19.5 125.7-20.3 125.52-21.1 125.22-21.55L125.22-21.55Q124.77-22.2 124.15-22.2 123.52-22.2 123.12-21.83 122.72-21.45 122.37-19.63 122.02-17.8 122.02-14.45 122.02-11.1 122.37-9.3ZM158.8 0.45L158.8 0.45Q153.2 0.45 150.98-2.45 148.75-5.35 148.75-12.55L148.75-12.55 148.75-26.15Q148.75-27.15 151.7-28.08 154.65-29 157.9-29L157.9-29Q162.25-29 162.25-26.75L162.25-26.75 162.25-14.05Q162.25-10.25 162.55-8.53 162.85-6.8 164.05-6.8L164.05-6.8Q165.65-6.8 165.65-8.15L165.65-8.15 165.65-26.15Q165.65-27.2 168.75-28.1 171.85-29 175.5-29 179.15-29 179.15-27.05L179.15-27.05 179.15-1.3Q179.15-0.6 176-0.3 172.85 0 169.8 0 166.75 0 166.7-0.8L166.7-0.8 166.2-4.05 165.8-4.05Q165.35-2.25 164-1.1L164-1.1Q163.3-0.5 161.93-0.03 160.55 0.45 158.8 0.45ZM201.93-15.8L201.93-15.8 201.93-1.2Q201.93-0.65 199.11-0.33 196.28 0 193.26 0 190.23 0 189.33-0.28 188.43-0.55 188.43-1.2L188.43-1.2 188.43-25.85Q188.43-26.8 191.21-27.9 193.98-29 197.26-29 200.53-29 200.93-27.2L200.93-27.2 201.43-24.9 201.78-24.9Q202.48-26.8 205.13-28.13 207.78-29.45 210.43-29.45 213.08-29.45 214.16-28.6 215.23-27.75 215.23-26.43 215.23-25.1 215.03-23.05 214.83-21 214.06-18.6 213.28-16.2 212.03-16.2L212.03-16.2Q211.53-16.2 208.88-16.95 206.23-17.7 204.51-17.7 202.78-17.7 202.36-17.2 201.93-16.7 201.93-15.8ZM256.79-4.5Q256.79 1.65 254.02 4.7 251.24 7.75 246.39 7.75 241.54 7.75 240.17 6.83 238.79 5.9 238.79 2.68 238.79-0.55 240.04-0.7L240.04-0.7Q241.79-0.95 242.52-1.6 243.24-2.25 243.24-4L243.24-4 243.24-24.95Q243.24-26.05 246.07-27.13 248.89-28.2 252.19-28.2L252.19-28.2Q256.79-28.2 256.79-25.85L256.79-25.85 256.79-4.5ZM257.04-34.65Q257.04-30 250.04-30 243.04-30 243.04-34.55L243.04-34.55Q243.04-37.1 244.92-38.05 246.79-39 250.14-39 253.49-39 255.27-38.13 257.04-37.25 257.04-34.65L257.04-34.65ZM281.72 0.45L281.72 0.45Q277.97 0.45 275.27-0.2 272.57-0.85 270.37-2.5L270.37-2.5Q265.82-5.8 265.82-14.8L265.82-14.8Q265.82-22.8 270.47-26.25L270.47-26.25Q274.82-29.45 281.72-29.45L281.72-29.45Q284.67-29.45 286.77-29.18 288.87-28.9 291.05-28 293.22-27.1 294.55-25.55 295.87-24 296.72-21.28 297.57-18.55 297.57-14.8L297.57-14.8Q297.57-7.2 293.27-3.38 288.97 0.45 281.72 0.45ZM279.97-9.3Q280.32-7.5 280.7-7.15 281.07-6.8 281.7-6.8 282.32-6.8 282.7-7.15 283.07-7.5 283.4-9.3 283.72-11.1 283.72-13.83 283.72-16.55 283.6-18.03 283.47-19.5 283.3-20.3 283.12-21.1 282.82-21.55L282.82-21.55Q282.37-22.2 281.75-22.2 281.12-22.2 280.72-21.83 280.32-21.45 279.97-19.63 279.62-17.8 279.62-14.45 279.62-11.1 279.97-9.3ZM309.1-0.5L309.1-0.5Q306.35-1.2 306.35-2.6L306.35-2.6 306.35-34.3Q306.35-35.4 309.3-36.45 312.25-37.5 315.5-37.5L315.5-37.5Q319.9-37.5 319.9-35.2L319.9-35.2 319.9-29.55 319.35-26.1 319.75-26.1Q320.05-26.55 320.88-27.2 321.7-27.85 322.6-28.3L322.6-28.3Q324.8-29.45 327.45-29.45 330.1-29.45 331.63-28.78 333.15-28.1 334.08-27.03 335-25.95 335.55-24.3L335.55-24.3Q336.5-21.45 336.5-17.2L336.5-17.2Q336.5-10.15 334.9-6.4 333.3-2.65 329.7-1.1 326.1 0.45 319.55 0.45 313 0.45 309.1-0.5ZM319.85-22.25L319.85-6.9 321.4-6.9Q323-6.9 323-14.58 323-22.25 321.35-22.25L321.35-22.25 319.85-22.25ZM382.21-0.45Q381.31 0.4 378.11 0.4 374.91 0.4 372.81-0.03 370.71-0.45 368.81-1.7L368.81-1.7Q365.16-4.15 365.16-11.9L365.16-11.9 365.16-19.7 362.66-19.7Q362.11-19.7 361.71-20.85 361.31-22 361.31-24 361.31-26 361.94-27.53 362.56-29.05 363.56-29.05L363.56-29.05 365.16-29.05 365.16-35.1Q365.16-36.65 368.19-37.6 371.21-38.55 374.11-38.55L374.11-38.55Q378.66-38.55 378.66-36.3L378.66-36.3 378.66-29.05 382.36-29.05Q383.66-29.05 383.66-25.3L383.66-25.3Q383.66-22.85 383.09-21.28 382.51-19.7 381.61-19.7L381.61-19.7 378.66-19.7 378.66-10.55Q378.66-9.2 379.81-8.63 380.96-8.05 381.84-8.05 382.71-8.05 382.91-7.2 383.11-6.35 383.11-4.65L383.11-4.65Q383.11-1.3 382.21-0.45ZM407.84 0.45L407.84 0.45Q404.09 0.45 401.39-0.2 398.69-0.85 396.49-2.5L396.49-2.5Q391.94-5.8 391.94-14.8L391.94-14.8Q391.94-22.8 396.59-26.25L396.59-26.25Q400.94-29.45 407.84-29.45L407.84-29.45Q410.79-29.45 412.89-29.18 414.99-28.9 417.17-28 419.34-27.1 420.67-25.55 421.99-24 422.84-21.28 423.69-18.55 423.69-14.8L423.69-14.8Q423.69-7.2 419.39-3.38 415.09 0.45 407.84 0.45ZM406.09-9.3Q406.44-7.5 406.82-7.15 407.19-6.8 407.82-6.8 408.44-6.8 408.82-7.15 409.19-7.5 409.52-9.3 409.84-11.1 409.84-13.83 409.84-16.55 409.72-18.03 409.59-19.5 409.42-20.3 409.24-21.1 408.94-21.55L408.94-21.55Q408.49-22.2 407.87-22.2 407.24-22.2 406.84-21.83 406.44-21.45 406.09-19.63 405.74-17.8 405.74-14.45 405.74-11.1 406.09-9.3ZM495.05-16.5L495.05-16.5 495.05-1.2Q495.05-0.65 492.23-0.33 489.4 0 486.38 0 483.35 0 482.45-0.28 481.55-0.55 481.55-1.2L481.55-1.2 481.55-15.05Q481.55-22.2 480.1-22.2L480.1-22.2Q479.75-22.2 479.4-21.9 479.05-21.6 479.05-20.85L479.05-20.85 479.05-1.2Q479.05-0.65 476.23-0.33 473.4 0 470.35 0 467.3 0 466.43-0.28 465.55-0.55 465.55-1.2L465.55-1.2 465.55-15.05Q465.55-20.6 464.85-21.7L464.85-21.7Q464.5-22.2 463.95-22.2L463.95-22.2Q463-22.2 463-20.85L463-20.85 463-1.2Q463-0.65 460.15-0.33 457.3 0 454.28 0 451.25 0 450.38-0.28 449.5-0.55 449.5-1.2L449.5-1.2 449.5-25.85Q449.5-26.9 452.38-27.95 455.25-29 458.45-29 461.65-29 462.05-27.15L462.05-27.15 462.5-24.95 462.85-24.95Q464.3-27.8 467.65-29L467.65-29Q469.05-29.45 471.25-29.45L471.25-29.45Q475.65-29.45 477.65-24.95L477.65-24.95Q478.3-26.45 480.9-27.95 483.5-29.45 486.65-29.45L486.65-29.45Q491.6-29.45 493.33-26.38 495.05-23.3 495.05-16.5ZM513.83 0.45L513.83 0.45Q509.28 0.45 506.68-1.7L506.68-1.7Q505.63-2.6 504.86-4.35 504.08-6.1 504.08-8.45 504.08-10.8 505.21-12.55 506.33-14.3 507.93-15.25 509.53-16.2 511.68-16.8L511.68-16.8Q514.93-17.65 518.83-17.65L518.83-17.65 520.48-17.65Q520.48-19.7 519.08-20.55L519.08-20.55Q518.48-20.9 517.26-20.9 516.03-20.9 514.31-20.25 512.58-19.6 511.43-18.93 510.28-18.25 509.88-18.25L509.88-18.25Q508.98-18.25 507.43-20.63 505.88-23 505.88-24.95L505.88-24.95Q505.88-25.6 507.73-26.65 509.58-27.7 512.96-28.58 516.33-29.45 519.53-29.45 522.73-29.45 525.06-28.93 527.38-28.4 528.86-27.65 530.33-26.9 531.36-25.65 532.38-24.4 532.91-23.4 533.43-22.4 533.68-20.8L533.68-20.8Q534.03-18.95 534.03-16.25L534.03-16.25 534.03-1.2Q534.03-0.65 531.36-0.33 528.68 0 526.06 0 523.43 0 522.66-0.15 521.88-0.3 521.73-0.5 521.58-0.7 521.48-1.2L521.48-1.2 521.08-4.05 520.68-4.05Q519.43 0.45 513.83 0.45ZM520.53-7.85L520.53-7.85 520.53-13.7Q519.23-13.7 518.43-12.6 517.63-11.5 517.63-10.1L517.63-10.1Q517.63-6.8 519.13-6.8L519.13-6.8Q519.78-6.8 520.16-7.13 520.53-7.45 520.53-7.85ZM556.81-1.2Q556.81-0.65 554.01-0.33 551.21 0 548.16 0 545.11 0 544.21-0.28 543.31-0.55 543.31-1.2L543.31-1.2 543.31-35.8Q543.31-36.9 546.14-37.95 548.96-39 552.21-39L552.21-39Q556.81-39 556.81-36.7L556.81-36.7 556.81-18 557.46-18Q559.86-29.45 561.01-29.45L561.01-29.45Q563.91-29.45 568.01-28.1 572.11-26.75 572.11-25.1L572.11-25.1Q572.11-23.9 570.11-20.5 568.11-17.1 565.96-14.95L565.96-14.95Q573.11-6.4 573.11-4.8L573.11-4.8Q573.11-3.3 568.56-1.15 564.01 1 562.16 1L562.16 1Q561.26 1 560.26-1.18 559.26-3.35 558.11-7.7L558.11-7.7 556.81-6.15 556.81-1.2ZM595.69-11.3L594.04-11.3Q594.04-8.05 597.14-8.05L597.14-8.05Q598.94-8.05 601.84-9.28 604.74-10.5 604.89-10.5L604.89-10.5Q605.84-10.5 607.39-7.65 608.94-4.8 608.94-3.45L608.94-3.45Q608.94-1.5 604.94-0.5 600.94 0.5 597.12 0.5 593.29 0.5 590.72-0.1 588.14-0.7 586.52-1.63 584.89-2.55 583.67-3.9 582.44-5.25 581.84-6.48 581.24-7.7 580.89-9.2L580.89-9.2Q580.39-11.4 580.39-13.75L580.39-13.75Q580.39-22.85 585.14-26.3L585.14-26.3Q587.49-28.05 590.39-28.75 593.29-29.45 597.24-29.45L597.24-29.45Q609.89-29.45 609.89-20.65L609.89-20.65Q609.89-11.3 595.69-11.3L595.69-11.3ZM593.94-18.6L593.94-18.6 593.94-15.3Q595.39-15.3 596.32-16.45 597.24-17.6 597.24-19.25L597.24-19.25Q597.24-22.25 595.69-22.25L595.69-22.25Q593.94-22.25 593.94-18.6ZM652.55-3.25L652.55-3.25 652.55-6.2 652.15-6.2Q651.9-5.95 651.4-5.55 650.9-5.15 649.05-4.5 647.2-3.85 644.93-3.85 642.65-3.85 640.93-4.58 639.2-5.3 638.2-6.53 637.2-7.75 636.65-9.8L636.65-9.8Q635.7-13.05 635.7-19L635.7-19 635.7-25.9Q635.7-26.95 638.65-27.98 641.6-29 644.85-29L644.85-29Q649.2-29 649.2-26.75L649.2-26.75 649.2-20.45Q649.2-10.45 650.8-10.45L650.8-10.45Q651.75-10.45 651.75-11.8L651.75-11.8 651.75-25.9Q651.75-26.95 654.9-27.98 658.05-29 661.65-29 665.25-29 665.25-27.05L665.25-27.05 665.25-3.4Q665.25 7.75 650.15 7.75L650.15 7.75Q642.2 7.75 639.35 6.2L639.35 6.2Q638.1 5.5 638.1 4.75L638.1 4.75Q638.1 3.55 639.1 0.73 640.1-2.1 640.95-2.1L640.95-2.1Q641.15-2.1 642.35-1.8L642.35-1.8Q646.05-0.8 648.53-0.8 651-0.8 651.78-1.35 652.55-1.9 652.55-3.25ZM689.93 0.45L689.93 0.45Q686.18 0.45 683.48-0.2 680.78-0.85 678.58-2.5L678.58-2.5Q674.03-5.8 674.03-14.8L674.03-14.8Q674.03-22.8 678.68-26.25L678.68-26.25Q683.03-29.45 689.93-29.45L689.93-29.45Q692.88-29.45 694.98-29.18 697.08-28.9 699.26-28 701.43-27.1 702.76-25.55 704.08-24 704.93-21.28 705.78-18.55 705.78-14.8L705.78-14.8Q705.78-7.2 701.48-3.38 697.18 0.45 689.93 0.45ZM688.18-9.3Q688.53-7.5 688.91-7.15 689.28-6.8 689.91-6.8 690.53-6.8 690.91-7.15 691.28-7.5 691.61-9.3 691.93-11.1 691.93-13.83 691.93-16.55 691.81-18.03 691.68-19.5 691.51-20.3 691.33-21.1 691.03-21.55L691.03-21.55Q690.58-22.2 689.96-22.2 689.33-22.2 688.93-21.83 688.53-21.45 688.18-19.63 687.83-17.8 687.83-14.45 687.83-11.1 688.18-9.3ZM724.61 0.45L724.61 0.45Q719.01 0.45 716.79-2.45 714.56-5.35 714.56-12.55L714.56-12.55 714.56-26.15Q714.56-27.15 717.51-28.08 720.46-29 723.71-29L723.71-29Q728.06-29 728.06-26.75L728.06-26.75 728.06-14.05Q728.06-10.25 728.36-8.53 728.66-6.8 729.86-6.8L729.86-6.8Q731.46-6.8 731.46-8.15L731.46-8.15 731.46-26.15Q731.46-27.2 734.56-28.1 737.66-29 741.31-29 744.96-29 744.96-27.05L744.96-27.05 744.96-1.3Q744.96-0.6 741.81-0.3 738.66 0 735.61 0 732.56 0 732.51-0.8L732.51-0.8 732.01-4.05 731.61-4.05Q731.16-2.25 729.81-1.1L729.81-1.1Q729.11-0.5 727.74-0.03 726.36 0.45 724.61 0.45ZM784.87 0.45L784.87 0.45Q776.57 0.45 772.72-1.15L772.72-1.15Q770.77-2 770.77-2.8L770.77-2.8Q770.77-4.85 771.97-7.6 773.17-10.35 774.07-10.35L774.07-10.35Q774.57-10.35 777.45-9.25 780.32-8.15 782.3-8.15 784.27-8.15 784.9-8.4 785.52-8.65 785.52-9.38 785.52-10.1 784.52-10.53 783.52-10.95 782.02-11.1 780.52-11.25 778.8-11.7 777.07-12.15 775.57-12.85 774.07-13.55 773.07-15.18 772.07-16.8 772.07-18.68 772.07-20.55 772.17-21.48 772.27-22.4 773-24.08 773.72-25.75 775.05-26.8 776.37-27.85 779.15-28.7 781.92-29.55 785.37-29.55 788.82-29.55 791.15-29.33 793.47-29.1 794.8-28.75 796.12-28.4 796.97-27.95L796.97-27.95Q798.42-27.2 798.42-26.3L798.42-26.3Q798.42-24.35 797.02-21.8 795.62-19.25 794.8-19.25 793.97-19.25 791.22-20.13 788.47-21 787.17-21L787.17-21Q785.07-21 785.07-19.8L785.07-19.8Q785.07-19.05 786.5-18.68 787.92-18.3 789.92-17.9 791.92-17.5 793.95-16.78 795.97-16.05 797.4-14.15 798.82-12.25 798.82-9.35L798.82-9.35Q798.82 0.45 784.87 0.45ZM853.15-16.5L853.15-16.5 853.15-1.2Q853.15-0.65 850.33-0.33 847.5 0 844.48 0 841.45 0 840.55-0.28 839.65-0.55 839.65-1.2L839.65-1.2 839.65-15.05Q839.65-22.2 838.2-22.2L838.2-22.2Q837.85-22.2 837.5-21.9 837.15-21.6 837.15-20.85L837.15-20.85 837.15-1.2Q837.15-0.65 834.33-0.33 831.5 0 828.45 0 825.4 0 824.53-0.28 823.65-0.55 823.65-1.2L823.65-1.2 823.65-15.05Q823.65-20.6 822.95-21.7L822.95-21.7Q822.6-22.2 822.05-22.2L822.05-22.2Q821.1-22.2 821.1-20.85L821.1-20.85 821.1-1.2Q821.1-0.65 818.25-0.33 815.4 0 812.38 0 809.35 0 808.48-0.28 807.6-0.55 807.6-1.2L807.6-1.2 807.6-25.85Q807.6-26.9 810.48-27.95 813.35-29 816.55-29 819.75-29 820.15-27.15L820.15-27.15 820.6-24.95 820.95-24.95Q822.4-27.8 825.75-29L825.75-29Q827.15-29.45 829.35-29.45L829.35-29.45Q833.75-29.45 835.75-24.95L835.75-24.95Q836.4-26.45 839-27.95 841.6-29.45 844.75-29.45L844.75-29.45Q849.7-29.45 851.43-26.38 853.15-23.3 853.15-16.5ZM876.18-25.85L876.18-25.85 876.18-1.2Q876.18-0.65 873.31-0.33 870.43 0 867.41 0 864.38 0 863.51-0.28 862.63-0.55 862.63-1.2L862.63-1.2 862.63-24.95Q862.63-26.05 865.46-27.13 868.28-28.2 871.63-28.2L871.63-28.2Q876.18-28.2 876.18-25.85ZM869.38-39L869.38-39Q872.68-39 874.56-38.02 876.43-37.05 876.43-34.5L876.43-34.5Q876.43-30 869.43-30 862.43-30 862.43-34.5 862.43-39 869.38-39ZM899.21-36.7L899.21-36.7 899.21-1.2Q899.21-0.65 896.36-0.33 893.51 0 890.49 0 887.46 0 886.59-0.28 885.71-0.55 885.71-1.2L885.71-1.2 885.71-35.8Q885.71-36.9 888.54-37.95 891.36-39 894.61-39L894.61-39Q899.21-39 899.21-36.7ZM923.29-11.3L921.64-11.3Q921.64-8.05 924.74-8.05L924.74-8.05Q926.54-8.05 929.44-9.28 932.34-10.5 932.49-10.5L932.49-10.5Q933.44-10.5 934.99-7.65 936.54-4.8 936.54-3.45L936.54-3.45Q936.54-1.5 932.54-0.5 928.54 0.5 924.72 0.5 920.89 0.5 918.32-0.1 915.74-0.7 914.12-1.63 912.49-2.55 911.27-3.9 910.04-5.25 909.44-6.48 908.84-7.7 908.49-9.2L908.49-9.2Q907.99-11.4 907.99-13.75L907.99-13.75Q907.99-22.85 912.74-26.3L912.74-26.3Q915.09-28.05 917.99-28.75 920.89-29.45 924.84-29.45L924.84-29.45Q937.49-29.45 937.49-20.65L937.49-20.65Q937.49-11.3 923.29-11.3L923.29-11.3ZM921.54-18.6L921.54-18.6 921.54-15.3Q922.99-15.3 923.92-16.45 924.84-17.6 924.84-19.25L924.84-19.25Q924.84-22.25 923.29-22.25L923.29-22.25Q921.54-22.25 921.54-18.6Z" opacity="1" transform="matrix(1,0,0,1,0,0)" fill="#ffffff" class="undefined-text-1" data-fill-palette-color="secondary" id="text-1"></path></svg></g></svg></g></svg></g></svg></g><g transform="matrix(1,0,0,1,58.15169984720981,0)"><svg viewBox="0 0 75.69660030558038 75.6957592415888" height="75.6957592415888" width="75.69660030558038"><g><svg xmlns="http://www.w3.org/2000/svg" xmlns:xlink="http://www.w3.org/1999/xlink" version="1.1" x="0" y="0" viewBox="4.967 5 90.001 90" enable-background="new 0 0 100 100" xml:space="preserve" height="75.6957592415888" width="75.69660030558038" class="icon-icon-0" data-fill-palette-color="accent" id="icon-0"><g fill="#f0f0f0" data-fill-palette-color="accent"><polygon points="81.588,69.219 76.042,77.733 49.901,5 30.566,58.797 24.486,43.546 4.967,95 17.555,95 45,95 64.794,95 82.249,95    94.968,95  " fill="#ffffff" data-fill-palette-color="accent"></polygon></g></svg></g></svg></g><g></g></svg></g></svg></g></svg></g></svg></g><defs></defs></svg><rect width="320" height="360" fill="none" stroke="none" visibility="hidden"></rect></g></svg></g></svg>